<?xml version="1.0" encoding="UTF-8"?>
<svg width="512px" height="512px" viewBox="0 0 512 512" version="1.1" xmlns="http://www.w3.org/2000/svg" xmlns:xlink="http://www.w3.org/1999/xlink">
    <!-- Generator: Sketch 52.3 (67297) - http://www.bohemiancoding.com/sketch -->
    <title>FB_logo</title>
    <desc>Created with Sketch.</desc>
    <g id="FB_logo" stroke="none" stroke-width="1" fill="none" fill-rule="evenodd">
        <g id="flogo-HexRBG-Wht-512" transform="translate(50.000000, 50.000000)" fill="#FFFFFF">
            <path d="M389.259531,0 L22.7404688,0 C10.1812547,-7.69030067e-16 1.53806013e-15,10.1812547 0,22.7404687 L0,389.259531 C1.53806013e-15,401.818745 10.1812547,412 22.7404688,412 L220.082031,412 L220.082031,252.671875 L166.570312,252.671875 L166.570312,190.308594 L220.082031,190.308594 L220.082031,144.441406 C220.082031,91.2274219 252.583359,62.250625 300.051875,62.250625 C322.784297,62.250625 342.330156,63.9485156 348.027344,64.6646875 L348.027344,120.300781 L315.188047,120.300781 C289.438047,120.300781 284.457031,132.564219 284.457031,150.573125 L284.457031,190.308594 L346.20875,190.308594 L338.161875,252.671875 L284.457031,252.671875 L284.457031,412 L389.259531,412 C401.818745,412 412,401.818745 412,389.259531 L412,22.7404688 C412,10.1812547 401.818745,7.69030067e-16 389.259531,0 Z" id="Path"></path>
        </g>
    </g>
</svg>