<?xml version="1.0" encoding="UTF-8"?>
<svg width="512px" height="512px" viewBox="0 0 512 512" version="1.1" xmlns="http://www.w3.org/2000/svg" xmlns:xlink="http://www.w3.org/1999/xlink">
    <!-- Generator: Sketch 52.3 (67297) - http://www.bohemiancoding.com/sketch -->
    <title>Twitter_logo</title>
    <desc>Created with Sketch.</desc>
    <g id="Twitter_logo" stroke="none" stroke-width="1" fill="none" fill-rule="evenodd">
        <g id="Twitter_Logo_WhiteOnImage" transform="translate(50.000000, 88.000000)" fill="#FFFFFF">
            <g id="Logo__x2014__FIXED">
                <path d="M129.5328,335.341176 C284.9392,335.341176 369.976,206.541176 369.976,95.0352941 C369.976,91.4117647 369.976,87.7882353 369.8112,84.1647059 C386.2912,72.3058824 400.6288,57.3176471 412,40.3529412 C396.8384,47.1058824 380.5232,51.5529412 363.384,53.6941176 C380.8528,43.3176471 394.2016,26.6823529 400.6288,6.91764706 C384.3136,16.6352941 366.1856,23.5529412 346.904,27.3411765 C331.4128,10.8705882 309.4944,0.658823529 285.2688,0.658823529 C238.6304,0.658823529 200.7264,38.5411765 200.7264,85.1529412 C200.7264,91.7411765 201.5504,98.1647059 202.8688,104.423529 C132.664,100.964706 70.3696,67.2 28.6752,16.1411765 C21.424,28.6588235 17.304,43.1529412 17.304,58.6352941 C17.304,87.9529412 32.3008,113.811765 54.8784,128.964706 C41.0352,128.470588 28.016,124.682353 16.6448,118.423529 C16.6448,118.752941 16.6448,119.082353 16.6448,119.576471 C16.6448,160.423529 45.8144,194.682353 84.3776,202.423529 C77.2912,204.4 69.8752,205.388235 62.1296,205.388235 C56.6912,205.388235 51.4176,204.894118 46.3088,203.905882 C57.0208,237.505882 88.3328,261.882353 125.248,262.541176 C96.2432,285.270588 59.8224,298.776471 20.2704,298.776471 C13.5136,298.776471 6.7568,298.447059 0.1648,297.623529 C37.4096,321.341176 81.9056,335.341176 129.5328,335.341176" id="Path"></path>
            </g>
        </g>
    </g>
</svg>
