<svg version="1" xmlns="http://www.w3.org/2000/svg" width="346.667" height="346.667" viewBox="0 0 260.000000 260.000000"><path d="M114.5 16C54.8 25.4 12.1 77.1 15.3 136c2.9 53.9 41 97.5 94.2 108.1 9.1 1.8 32.9 1.8 42 0 47.3-9.4 83.2-45.3 92.6-92.6.8-4 1.4-13.1 1.4-21s-.6-17-1.4-21C234.8 63 200 27.4 153.7 17.4c-8.7-1.9-30.9-2.7-39.2-1.4zm28.2 4.1c25 2.8 48.4 14 66.3 31.9 6.6 6.6 18.8 22.6 17.9 23.4-.5.4-203.1 36.6-204.8 36.6-1.7 0-1-4.1 2.6-15.5 11-34.8 40.2-62.9 75.8-73 14.7-4.1 26.9-5.1 42.2-3.4zm89.6 65.6c24.3 54.3-.2 119.5-54.5 145.3-55.1 26.2-121.4 2.3-147.8-53.2-7.5-15.9-12.1-38.9-10.5-53.4.6-5.5 1-6.5 2.8-6.9 5.3-1.1 19.1-3.5 20.6-3.5 1.2 0 2 2 3.2 8.4 3.1 15.7 9.9 26 20.7 31.3 13.6 6.6 38.9 2.6 50-8 6.2-5.9 8.5-11.9 9-23.2.3-6.7-.1-12.1-1.1-16.5-.9-3.6-1.5-6.5-1.4-6.6.1-.1 23.8-4.4 52.7-9.7 28.9-5.2 52.8-9.5 53.1-9.6.4 0 1.8 2.5 3.2 5.6z"/><path d="M176.3 112c-11.5 7-6.3 25 7.2 25 7.6 0 13.5-5.9 13.5-13.5 0-10.6-11.6-17.1-20.7-11.5zm11.1 3.4c7.1 2.9 6.7 14-.5 16.5-2.4.8-4.2.8-6.7 0-7.2-2.4-7.8-13.4-.8-16.5 3.9-1.7 4-1.7 8 0zM98 188.5v2.5h74v-5H98v2.5z"/></svg>