<?xml version="1.0" standalone="no"?>
<!DOCTYPE svg PUBLIC "-//W3C//DTD SVG 20010904//EN"
 "http://www.w3.org/TR/2001/REC-SVG-20010904/DTD/svg10.dtd">
<svg version="1.0" xmlns="http://www.w3.org/2000/svg"
 width="780.000000pt" height="780.000000pt" viewBox="0 0 780.000000 780.000000"
 preserveAspectRatio="xMidYMid meet">
<metadata>
Created by potrace 1.11, written by Peter Selinger 2001-2013
</metadata>
<g transform="translate(0.000000,780.000000) scale(0.100000,-0.100000)"
fill="#000000" stroke="none">
<path d="M0 3900 l0 -3900 3900 0 3900 0 0 3900 0 3900 -3900 0 -3900 0 0
-3900z m3388 2324 c535 -79 930 -463 1006 -977 121 -809 -452 -1435 -1284
-1404 -80 3 -181 13 -225 22 -518 108 -874 473 -952 979 -18 122 -13 353 11
464 47 216 139 395 285 554 168 182 440 322 706 362 124 19 326 19 453 0z
m1862 -3089 l0 -1605 -165 0 -165 0 0 1605 0 1605 165 0 165 0 0 -1605z m795
1045 c346 -149 640 -277 652 -283 20 -11 -51 -44 -634 -297 -361 -157 -664
-288 -674 -292 -18 -7 -19 12 -19 577 l0 585 23 -9 c12 -5 305 -131 652 -281z
m-2430 -579 c438 -67 789 -208 1112 -445 l42 -31 1 -797 0 -798 -350 0 -350 0
0 623 0 624 -84 41 c-446 221 -1059 211 -1471 -25 -239 -136 -416 -320 -538
-560 -89 -176 -135 -349 -152 -575 l-7 -88 -370 0 -371 0 6 119 c42 772 459
1401 1146 1729 228 108 452 168 781 206 94 11 481 -3 605 -23z"/>
<path d="M2990 5755 c-232 -52 -426 -247 -491 -492 -30 -112 -30 -326 0 -438
54 -206 176 -359 356 -445 111 -53 170 -65 310 -64 213 0 344 53 485 194 144
143 201 292 202 525 1 151 -17 241 -68 353 -76 167 -211 287 -389 348 -68 23
-100 27 -210 30 -88 2 -151 -1 -195 -11z"/>
</g>
</svg>
